<?xml version="1.0" encoding="UTF-8"?>
<!DOCTYPE svg PUBLIC "-//W3C//DTD SVG 1.1//EN" "http://www.w3.org/Graphics/SVG/1.1/DTD/svg11.dtd">
<!-- Creator: CorelDRAW -->
<svg xmlns="http://www.w3.org/2000/svg" xml:space="preserve" width="222.983mm" height="57.3554mm" version="1.1" style="shape-rendering:geometricPrecision; text-rendering:geometricPrecision; image-rendering:optimizeQuality; fill-rule:evenodd; clip-rule:evenodd"
viewBox="0 0 22297.26 5735.26"
 xmlns:xlink="http://www.w3.org/1999/xlink"
 xmlns:xodm="http://www.corel.com/coreldraw/odm/2003">
 <defs>
  <style type="text/css">
   <![CDATA[
    .fil0 {fill:url(#id0)}
    .fil1 {fill:url(#id1);fill-rule:nonzero}
   ]]>
  </style>
  <linearGradient id="id0" gradientUnits="userSpaceOnUse" x1="2324.28" y1="2811.31" x2="22297.26" y2="2811.31">
   <stop offset="0" style="stop-opacity:1; stop-color:#4C048C"/>
   <stop offset="1" style="stop-opacity:1; stop-color:#C07EFB"/>
  </linearGradient>
  <linearGradient id="id1" gradientUnits="userSpaceOnUse" x1="-0" y1="3600.81" x2="3794.27" y2="3600.81">
   <stop offset="0" style="stop-opacity:1; stop-color:#4C048C"/>
   <stop offset="1" style="stop-opacity:1; stop-color:#4C048C"/>
  </linearGradient>
 </defs>
 <g id="Camada_x0020_1">
  <metadata id="CorelCorpID_0Corel-Layer"/>
  <path class="fil0" d="M2324.32 5531.01l0 -572.6 915.47 -531.19 0 1103.8 -915.47 0zm0 -3287.59l0 -557.45 808.68 0 68.68 640.82c116.99,-223.78 284.82,-401.76 503.52,-534.03 218.7,-132.22 478.08,-198.34 778.17,-198.34 310.26,0 574.75,64.88 793.41,194.54 218.7,129.66 387.8,319.17 507.36,568.34 119.5,249.22 179.26,559.46 179.26,930.75l0 2242.96 -915.48 0 0 -2159.05c0,-320.45 -71.2,-567.1 -213.62,-740 -142.43,-172.9 -353.49,-259.38 -633.23,-259.38 -183.06,0 -347.08,43.24 -492.08,129.66 -137.62,82.09 -247.76,199.71 -330.38,352.89l-1054.33 -611.72 0.04 0.01zm5935.42 3379.14c-366.16,0 -695.54,-85.2 -987.95,-255.58 -292.46,-170.38 -521.31,-406.88 -686.62,-709.5 -165.3,-302.62 -247.94,-649.74 -247.94,-1041.39 0,-401.8 83.92,-754 251.78,-1056.62 167.82,-302.62 397.96,-539.11 690.42,-709.5 292.46,-170.38 621.79,-255.58 987.95,-255.58 366.21,0 695.53,85.2 987.98,255.58 292.46,170.38 521.31,405.65 686.62,705.7 165.3,300.1 247.94,651.01 247.94,1052.82 0,401.8 -83.92,752.73 -251.74,1052.83 -167.82,300.1 -398.01,535.31 -690.47,705.7 -292.46,170.38 -621.73,255.58 -987.94,255.58l-0.03 -0.04zm0 -785.76c183.1,0 349.69,-45.76 499.71,-137.35 150.02,-91.56 270.82,-228.86 362.36,-411.96 91.56,-183.1 137.3,-409.45 137.3,-678.98 0,-269.58 -44.47,-494.64 -133.5,-675.18 -88.99,-180.53 -208.5,-316.6 -358.57,-408.15 -150.01,-91.56 -316.6,-137.35 -499.71,-137.35 -177.98,0 -343.33,45.76 -495.88,137.35 -152.58,91.56 -274.66,227.58 -366.16,408.15 -91.56,180.54 -137.35,405.6 -137.35,675.18 0,269.58 45.76,495.88 137.35,678.98 91.56,183.06 212.34,320.41 362.36,411.96 150.02,91.56 314.05,137.35 492.08,137.35l0.01 0zm2357.39 694.26l0 -3845.05 808.69 0 76.27 526.39c122.07,-193.26 283.54,-344.56 484.48,-453.92 200.9,-109.35 431.04,-164.02 690.42,-164.02 193.26,0 367.44,25.44 522.59,76.27 155.1,50.88 292.46,127.19 411.96,228.86 119.5,101.71 217.42,228.86 293.74,381.44 142.43,-213.58 328.05,-381.44 556.91,-503.52 228.85,-122.07 478.07,-183.1 747.64,-183.1 320.41,0 592.55,64.88 816.28,194.54 223.78,129.66 394.21,320.41 511.16,572.19 116.99,251.74 175.46,560.74 175.46,926.91l0 2242.96 -907.84 0 0 -2151.41c0,-325.53 -66.12,-574.74 -198.39,-747.64 -132.22,-172.9 -328.05,-259.38 -587.42,-259.38 -177.98,0 -334.41,43.24 -469.2,129.66 -134.78,86.48 -240.29,212.34 -316.6,377.65 -76.27,165.29 -114.42,367.48 -114.42,606.54l0 2044.57 -907.89 0 0 -2151.41c0,-325.53 -66.12,-574.74 -198.34,-747.64 -132.27,-172.9 -330.61,-259.38 -595.07,-259.38 -167.82,0 -319.17,43.24 -453.92,129.66 -134.79,86.48 -240.34,212.34 -316.61,377.65 -76.32,165.29 -114.42,367.48 -114.42,606.54l0 2044.57 -915.48 0 0.01 0.04zm6637.28 0l0 -3845.05 915.48 0 0 3845.05 -915.48 0zm457.76 -4455.4c-167.82,0 -306.41,-52.12 -415.76,-156.38 -109.35,-104.27 -164.02,-232.66 -164.02,-385.24 0,-157.66 54.68,-286.1 164.02,-385.29 109.35,-99.15 247.94,-148.74 415.76,-148.74 167.87,0 306.46,49.6 415.81,148.74 109.35,99.2 164.02,227.62 164.02,385.29 0,152.58 -54.68,280.97 -164.02,385.24 -109.35,104.27 -247.94,156.38 -415.81,156.38zm694.26 4455.4l1357.95 -1922.55 -1357.95 -1922.5 984.15 0 961.26 1396.1 961.27 -1396.1 984.15 0 -1357.95 1922.5 1357.95 1922.55 -984.15 0 -961.27 -1396.11 -961.26 1396.11 -984.15 0z"/>
  <path class="fil1" d="M3602.47 3931.25l-3017.7 1750.94c-256.13,148.42 -584.77,-31.3 -584.77,-330.56l0 -3501.9c0,-298.77 328.18,-478.99 584.77,-330.06l3017.7 1750.97c118.54,67.63 191.8,193.81 191.8,330.29 0,136.52 -73.21,262.67 -191.8,330.33l0 0z"/>
 </g>
</svg>
