<?xml version="1.0" encoding="UTF-8"?>
<!DOCTYPE svg PUBLIC "-//W3C//DTD SVG 1.1//EN" "http://www.w3.org/Graphics/SVG/1.1/DTD/svg11.dtd">
<!-- Creator: CorelDRAW (Versão OEM) -->
<svg xmlns="http://www.w3.org/2000/svg" xml:space="preserve" width="121.725mm" height="116.444mm" version="1.1" style="shape-rendering:geometricPrecision; text-rendering:geometricPrecision; image-rendering:optimizeQuality; fill-rule:evenodd; clip-rule:evenodd"
viewBox="0 0 12158.32 11630.75"
 xmlns:xlink="http://www.w3.org/1999/xlink"
 xmlns:xodm="http://www.corel.com/coreldraw/odm/2003">
 <defs>
  <style type="text/css">
   <![CDATA[
    .fil1 {fill:none}
    .fil0 {fill:#49ACF4}
    .fil2 {fill:#FDFDFF}
   ]]>
  </style>
    <clipPath id="id0">
     <path d="M2300.56 1851.26c-1189.39,0 -1542.89,609.27 -1125.43,1680.48 76.95,197.48 200.35,500.57 200.35,751.17 0,141.73 -919.82,625.86 -1174.19,993.17 -709.34,1024.28 652.2,1549.33 1062.53,1946.62 158.38,153.35 148.3,277.2 -5.17,670.17 -171.19,438.33 -380.08,965.39 -139.57,1404.04 70.45,128.48 146.09,207.82 267.57,287.48 571.91,375.08 1581.83,48.25 1805.53,256.09 115.22,107.04 211.89,543.44 274.62,729.77 110.31,327.6 238.74,746.86 568.93,937.64 324.24,187.35 518.9,132.13 863.08,-1.29 283.09,-109.73 387.44,-205.03 581.37,-370.15 122.83,-104.57 439.13,-344.34 582.43,-364.25 163.21,-22.67 628.62,365.01 757.64,462.11 191.33,143.98 549.32,396.45 872.25,396.45 633.2,0 847.91,-578.89 1001.12,-1034.08 58.41,-173.54 146.18,-579.5 266.87,-737.51 179.05,-234.43 1257.29,82.44 1798.81,-262.81 541.36,-345.15 429.27,-974.6 225.98,-1496.26 -76.95,-197.48 -200.35,-500.57 -200.35,-751.17 0,-88.74 692.81,-553.26 811.89,-641.83 748.88,-556.93 748.47,-1225.37 0,-1782.36 -959.83,-714.26 -934.53,-438.31 -623.32,-1378.34 159.73,-482.49 371.26,-1126.64 -199.78,-1498.91 -583.41,-380.31 -1570.67,-42.43 -1801.94,-259.68 -193.31,-181.61 -290.73,-1051 -587.49,-1421.28 -488.06,-608.96 -1031.58,-353.04 -1537.51,4.65 -118.75,83.96 -229.29,176.25 -343.26,264.66 -481.85,373.74 -528.54,239.43 -1163.36,-238.32 -193.73,-145.79 -543.98,-396.45 -872.25,-396.45 -284.17,0 -547.19,162.38 -672.93,331.45 -361.2,485.63 -394.7,1177.82 -595.05,1440.13 -66.55,87.14 -255.63,85.57 -401.57,101.86 -141.54,15.79 -316.73,-23.27 -497.79,-23.27z"/>
    </clipPath>
 </defs>
 <g id="Camada_x0020_1">
  <metadata id="CorelCorpID_0Corel-Layer"/>
  <g id="_1394321043936">
   <path class="fil0" d="M2300.56 1851.26c-1189.39,0 -1542.89,609.27 -1125.43,1680.48 76.95,197.48 200.35,500.57 200.35,751.17 0,141.73 -919.82,625.86 -1174.19,993.17 -709.34,1024.28 652.2,1549.33 1062.53,1946.62 158.38,153.35 148.3,277.2 -5.17,670.17 -171.19,438.33 -380.08,965.39 -139.57,1404.04 70.45,128.48 146.09,207.82 267.57,287.48 571.91,375.08 1581.83,48.25 1805.53,256.09 115.22,107.04 211.89,543.44 274.62,729.77 110.31,327.6 238.74,746.86 568.93,937.64 324.24,187.35 518.9,132.13 863.08,-1.29 283.09,-109.73 387.44,-205.03 581.37,-370.15 122.83,-104.57 439.13,-344.34 582.43,-364.25 163.21,-22.67 628.62,365.01 757.64,462.11 191.33,143.98 549.32,396.45 872.25,396.45 633.2,0 847.91,-578.89 1001.12,-1034.08 58.41,-173.54 146.18,-579.5 266.87,-737.51 179.05,-234.43 1257.29,82.44 1798.81,-262.81 541.36,-345.15 429.27,-974.6 225.98,-1496.26 -76.95,-197.48 -200.35,-500.57 -200.35,-751.17 0,-88.74 692.81,-553.26 811.89,-641.83 748.88,-556.93 748.47,-1225.37 0,-1782.36 -959.83,-714.26 -934.53,-438.31 -623.32,-1378.34 159.73,-482.49 371.26,-1126.64 -199.78,-1498.91 -583.41,-380.31 -1570.67,-42.43 -1801.94,-259.68 -193.31,-181.61 -290.73,-1051 -587.49,-1421.28 -488.06,-608.96 -1031.58,-353.04 -1537.51,4.65 -118.75,83.96 -229.29,176.25 -343.26,264.66 -481.85,373.74 -528.54,239.43 -1163.36,-238.32 -193.73,-145.79 -543.98,-396.45 -872.25,-396.45 -284.17,0 -547.19,162.38 -672.93,331.45 -361.2,485.63 -394.7,1177.82 -595.05,1440.13 -66.55,87.14 -255.63,85.57 -401.57,101.86 -141.54,15.79 -316.73,-23.27 -497.79,-23.27z"/>
   <g style="clip-path:url(#id0)">
    <g>
     <image transform="matrix(-1.18189 -62.8302 62.8302 -1.18189 -29747.5 12687.5)" x="0" y="0" width="211.41" height="810.43" xlink:href="Verified_Images\Verified_ImgID1.png"/>
    </g>
   </g>
   <path class="fil1" d="M2300.56 1851.26c-1189.39,0 -1542.89,609.27 -1125.43,1680.48 76.95,197.48 200.35,500.57 200.35,751.17 0,141.73 -919.82,625.86 -1174.19,993.17 -709.34,1024.28 652.2,1549.33 1062.53,1946.62 158.38,153.35 148.3,277.2 -5.17,670.17 -171.19,438.33 -380.08,965.39 -139.57,1404.04 70.45,128.48 146.09,207.82 267.57,287.48 571.91,375.08 1581.83,48.25 1805.53,256.09 115.22,107.04 211.89,543.44 274.62,729.77 110.31,327.6 238.74,746.86 568.93,937.64 324.24,187.35 518.9,132.13 863.08,-1.29 283.09,-109.73 387.44,-205.03 581.37,-370.15 122.83,-104.57 439.13,-344.34 582.43,-364.25 163.21,-22.67 628.62,365.01 757.64,462.11 191.33,143.98 549.32,396.45 872.25,396.45 633.2,0 847.91,-578.89 1001.12,-1034.08 58.41,-173.54 146.18,-579.5 266.87,-737.51 179.05,-234.43 1257.29,82.44 1798.81,-262.81 541.36,-345.15 429.27,-974.6 225.98,-1496.26 -76.95,-197.48 -200.35,-500.57 -200.35,-751.17 0,-88.74 692.81,-553.26 811.89,-641.83 748.88,-556.93 748.47,-1225.37 0,-1782.36 -959.83,-714.26 -934.53,-438.31 -623.32,-1378.34 159.73,-482.49 371.26,-1126.64 -199.78,-1498.91 -583.41,-380.31 -1570.67,-42.43 -1801.94,-259.68 -193.31,-181.61 -290.73,-1051 -587.49,-1421.28 -488.06,-608.96 -1031.58,-353.04 -1537.51,4.65 -118.75,83.96 -229.29,176.25 -343.26,264.66 -481.85,373.74 -528.54,239.43 -1163.36,-238.32 -193.73,-145.79 -543.98,-396.45 -872.25,-396.45 -284.17,0 -547.19,162.38 -672.93,331.45 -361.2,485.63 -394.7,1177.82 -595.05,1440.13 -66.55,87.14 -255.63,85.57 -401.57,101.86 -141.54,15.79 -316.73,-23.27 -497.79,-23.27z"/>
   <path class="fil2" d="M5551.57 6372.48c-180.88,-163.05 -816.67,-861.3 -973.21,-930.74 -292.99,-129.97 -563.77,65.76 -595.7,320.89 -37.69,301.1 239.86,488.56 369.58,618.28 1258.1,1258.09 947.97,1253.29 2190.69,320.93 185.92,-139.49 1521.64,-1100.55 1603.55,-1251.32 147.22,-270.93 -40.9,-557.1 -274.67,-607.59 -279.31,-60.31 -490.77,171.35 -650.19,290.85 -248.84,186.53 -1522.65,1166.03 -1670.04,1238.69z"/>
  </g>
 </g>
</svg>
